<?xml version="1.0" encoding="utf-8"?>
<!-- Generator: Adobe Illustrator 23.0.5, SVG Export Plug-In . SVG Version: 6.00 Build 0)  -->
<svg version="1.1" id="Layer_1" xmlns="http://www.w3.org/2000/svg" xmlns:xlink="http://www.w3.org/1999/xlink" x="0px" y="0px"
	 viewBox="0 0 934 345" style="enable-background:new 0 0 934 345;" xml:space="preserve">
<style type="text/css">
	.st0{display:none;}
	.st1{display:inline;}
	.st2{fill:#EF3B2D;}
	.st3{display:inline;fill:#EF3B2D;}
	.st4{fill:#008BE2;}
	.st5{font-family:'Poppins-BoldItalic';}
	.st6{font-size:108.7352px;}
	.st7{fill:#FFFFFF;}
</style>
<g class="st0">
	<g class="st1">
		<polygon class="st2" points="389.6,121.4 373.2,121.4 373.2,221.6 420.6,221.6 420.6,206.9 389.6,206.9 		"/>
		<path class="st2" d="M478.7,163.9c-2.1-3.3-5.1-6-8.9-7.9c-3.9-1.9-7.8-2.9-11.7-2.9c-5.1,0-9.7,0.9-13.9,2.8
			c-4.2,1.9-7.8,4.4-10.8,7.7c-3,3.2-5.3,7-7,11.2c-1.7,4.2-2.5,8.7-2.5,13.4c0,4.8,0.8,9.3,2.5,13.5c1.7,4.2,4,7.9,7,11.2
			c3,3.2,6.6,5.8,10.8,7.7c4.2,1.9,8.8,2.8,13.9,2.8c3.9,0,7.8-1,11.7-2.9c3.9-1.9,6.8-4.5,8.9-7.9v9h15.6v-66.7h-15.6V163.9z
			 M477.3,196.4c-1,2.6-2.3,4.8-4,6.7c-1.7,1.9-3.8,3.4-6.2,4.6c-2.4,1.1-5.1,1.7-8.1,1.7c-3,0-5.6-0.6-8-1.7
			c-2.4-1.1-4.4-2.7-6.2-4.6c-1.7-1.9-3-4.2-3.9-6.7c-0.9-2.6-1.4-5.3-1.4-8.2c0-2.9,0.5-5.6,1.4-8.2c0.9-2.6,2.2-4.8,3.9-6.7
			c1.7-1.9,3.8-3.4,6.2-4.6c2.4-1.1,5.1-1.7,8-1.7c3,0,5.7,0.6,8.1,1.7c2.4,1.1,4.5,2.7,6.2,4.6c1.7,1.9,3.1,4.2,4,6.7
			c1,2.6,1.4,5.3,1.4,8.2C478.7,191.1,478.2,193.8,477.3,196.4z"/>
		<path class="st2" d="M605.6,163.9c-2.1-3.3-5.1-6-8.9-7.9c-3.9-1.9-7.8-2.9-11.7-2.9c-5.1,0-9.7,0.9-13.9,2.8
			c-4.2,1.9-7.8,4.4-10.8,7.7c-3,3.2-5.3,7-7,11.2c-1.7,4.2-2.5,8.7-2.5,13.4c0,4.8,0.8,9.3,2.5,13.5c1.7,4.2,4,7.9,7,11.2
			c3,3.2,6.6,5.8,10.8,7.7c4.2,1.9,8.8,2.8,13.9,2.8c3.9,0,7.8-1,11.7-2.9c3.9-1.9,6.8-4.5,8.9-7.9v9h15.6v-66.7h-15.6V163.9z
			 M604.1,196.4c-1,2.6-2.3,4.8-4,6.7c-1.7,1.9-3.8,3.4-6.2,4.6c-2.4,1.1-5.1,1.7-8.1,1.7c-3,0-5.6-0.6-8-1.7
			c-2.4-1.1-4.4-2.7-6.2-4.6c-1.7-1.9-3-4.2-3.9-6.7c-0.9-2.6-1.4-5.3-1.4-8.2c0-2.9,0.5-5.6,1.4-8.2c0.9-2.6,2.2-4.8,3.9-6.7
			c1.7-1.9,3.8-3.4,6.2-4.6c2.4-1.1,5.1-1.7,8-1.7c3,0,5.7,0.6,8.1,1.7c2.4,1.1,4.5,2.7,6.2,4.6c1.7,1.9,3.1,4.2,4,6.7
			c1,2.6,1.4,5.3,1.4,8.2C605.6,191.1,605.1,193.8,604.1,196.4z"/>
		<rect x="776.8" y="121.4" class="st2" width="15.6" height="100.2"/>
		<polygon class="st2" points="506.6,221.6 522.2,221.6 522.2,170.2 549,170.2 549,154.9 506.6,154.9 		"/>
		<polygon class="st2" points="683.7,154.9 664.1,206 644.5,154.9 628.7,154.9 654.3,221.6 673.9,221.6 699.6,154.9 		"/>
		<path class="st2" d="M733.6,153.2c-19.1,0-34.2,15.7-34.2,35.1c0,21.4,14.6,35.1,36.2,35.1c12.1,0,19.8-4.6,29.2-14.7l-10.5-8.2
			c0,0-8,10.4-19.8,10.4c-13.8,0-19.6-11.1-19.6-16.9h51.8C769.3,172,754.8,153.2,733.6,153.2z M714.9,182.4
			c0.1-1.3,1.9-16.9,18.6-16.9c16.7,0,18.7,15.6,18.8,16.9H714.9z"/>
	</g>
	<path class="st3" d="M325.7,120.6c0-0.1-0.1-0.2-0.1-0.3c-0.1-0.2-0.1-0.3-0.2-0.5c-0.1-0.1-0.1-0.2-0.2-0.3
		c-0.1-0.1-0.2-0.2-0.3-0.3c-0.1-0.1-0.2-0.1-0.3-0.2c-0.1-0.1-0.2-0.2-0.3-0.3c0,0,0,0,0,0c0,0,0,0,0,0l-35.6-20.5
		c-0.9-0.5-2-0.5-3,0L250,118.8c0,0,0,0,0,0c0,0,0,0,0,0c-0.1,0.1-0.2,0.2-0.3,0.3c-0.1,0.1-0.2,0.1-0.3,0.2
		c-0.1,0.1-0.2,0.2-0.3,0.3c-0.1,0.1-0.1,0.2-0.2,0.3c-0.1,0.1-0.1,0.3-0.2,0.5c0,0.1-0.1,0.2-0.1,0.3c-0.1,0.2-0.1,0.5-0.1,0.8v39
		l-29.7,17.1v-76.3c0-0.3,0-0.5-0.1-0.8c0-0.1-0.1-0.2-0.1-0.3c-0.1-0.2-0.1-0.3-0.2-0.5c-0.1-0.1-0.1-0.2-0.2-0.3
		c-0.1-0.1-0.2-0.2-0.3-0.3c-0.1-0.1-0.2-0.1-0.3-0.2c-0.1-0.1-0.2-0.2-0.3-0.3c0,0,0,0,0,0c0,0,0,0,0,0l-35.6-20.5
		c-0.9-0.5-2-0.5-3,0l-35.6,20.5c0,0,0,0,0,0c0,0,0,0,0,0c-0.1,0.1-0.2,0.2-0.3,0.3c-0.1,0.1-0.2,0.1-0.3,0.2
		c-0.1,0.1-0.2,0.2-0.3,0.3c-0.1,0.1-0.1,0.2-0.2,0.3c-0.1,0.1-0.1,0.3-0.2,0.5c0,0.1-0.1,0.2-0.1,0.3c-0.1,0.2-0.1,0.5-0.1,0.8
		v122.1c0,1.1,0.6,2,1.5,2.6l71.3,41c0.2,0.1,0.3,0.1,0.5,0.2c0.1,0,0.1,0.1,0.2,0.1c0.2,0.1,0.5,0.1,0.8,0.1s0.5,0,0.8-0.1
		c0.1,0,0.1-0.1,0.2-0.1c0.2-0.1,0.4-0.1,0.5-0.2l71.3-41c0.9-0.5,1.5-1.5,1.5-2.6v-39l34.2-19.7c0.9-0.5,1.5-1.5,1.5-2.6v-40.7
		C325.8,121.1,325.8,120.8,325.7,120.6z M215.9,219.9l-29.6-16.8l31.1-17.9c0,0,0,0,0,0l34.2-19.7l29.7,17.1L259.4,195L215.9,219.9z
		 M284.2,143.6v33.8l-12.5-7.2l-17.2-9.9v-33.8l12.5,7.2L284.2,143.6z M287.2,104.3l29.7,17.1l-29.7,17.1l-29.7-17.1L287.2,104.3z
		 M195.7,190.8l-12.5,7.2v-74.5l17.2-9.9l12.5-7.2v74.5L195.7,190.8z M180.2,84.1l29.7,17.1l-29.7,17.1l-29.7-17.1L180.2,84.1z
		 M147.6,106.3l12.5,7.2l17.2,9.9v79.7c0,0,0,0,0,0s0,0,0,0c0,0.1,0,0.2,0,0.3c0,0.1,0,0.3,0.1,0.4c0,0,0,0,0,0
		c0,0.1,0.1,0.2,0.1,0.3c0.1,0.1,0.1,0.3,0.2,0.4c0,0,0,0,0,0c0.1,0.1,0.1,0.2,0.2,0.3c0.1,0.1,0.1,0.2,0.2,0.3c0,0,0,0,0,0
		c0.1,0.1,0.2,0.1,0.3,0.2c0.1,0.1,0.2,0.2,0.3,0.2c0,0,0,0,0,0s0,0,0,0l34.1,19.3v34.2l-65.4-37.6L147.6,106.3L147.6,106.3z
		 M284.2,221.6l-65.4,37.6V225l48.4-27.6l17-9.7V221.6z M319.8,160.3l-29.7,17.1v-33.8l17.2-9.9l12.5-7.2V160.3z"/>
</g>
<text transform="matrix(1 0 0 1 141.6147 267.6162)" class="st4 st5 st6">Blashboard</text>
<circle class="st7" cx="458.5" cy="185.5" r="40"/>
<path class="st4" d="M476.1,177.8c-0.3-0.6-0.7-1.2-1.1-1.8c-1-1.4-2.1-2.7-3.4-3.9c-3.5-3.1-8.1-5-13.1-5c-1.6,0-3.1,0.2-4.6,0.6
	l-45-51.6c-1.9-2.2-4.5-3.3-7.2-3.3c-2.2,0-4.5,0.8-6.3,2.4c-2.2,1.9-3.3,4.6-3.3,7.2c0,2.2,0.8,4.5,2.4,6.3l37.9,43.5l7.3,8.4
	c-0.7,2.1-1.1,4.3-1.1,6.6c0,1.4,0.1,2.7,0.4,4c0.1,0.6,0.3,1.3,0.5,1.9c0.1,0.3,0.2,0.6,0.3,0.9c0.2,0.6,0.5,1.2,0.8,1.8
	c0.2,0.5,0.5,0.9,0.7,1.4c0.7,1.2,1.5,2.3,2.5,3.4c0.2,0.2,0.4,0.5,0.7,0.7c0.5,0.5,1.1,1.1,1.7,1.5c0.4,0.3,0.8,0.6,1.2,0.9
	c1.6,1.1,3.4,1.9,5.2,2.5c0.6,0.2,1.3,0.4,1.9,0.5c1.3,0.3,2.6,0.4,4,0.4c0.3,0,0.7,0,1,0h0.1c0.2,0,0.3,0,0.5,0c0.2,0,0.3,0,0.5,0
	c1-0.1,2-0.3,2.9-0.5c0.2-0.1,0.5-0.1,0.7-0.2c0.8-0.2,1.6-0.5,2.3-0.8c5.2-2.3,9.2-6.8,11-12.2c0.2-0.7,0.4-1.3,0.5-2
	c0.1-0.3,0.1-0.6,0.2-0.9c0-0.3,0.1-0.6,0.1-1c0-0.2,0-0.4,0-0.6c0-0.2,0-0.4,0-0.7c0-0.2,0-0.4,0-0.7v-0.3
	C478.4,183.8,477.6,180.6,476.1,177.8z M476.1,177.8c-0.3-0.6-0.7-1.2-1.1-1.8c-1-1.4-2.1-2.7-3.4-3.9c-3.5-3.1-8.1-5-13.1-5
	c-1.6,0-3.1,0.2-4.6,0.6l-45-51.6c-1.9-2.2-4.5-3.3-7.2-3.3c-2.2,0-4.5,0.8-6.3,2.4c-2.2,1.9-3.3,4.6-3.3,7.2c0,2.2,0.8,4.5,2.4,6.3
	l37.9,43.5l7.3,8.4c-0.7,2.1-1.1,4.3-1.1,6.6c0,1.4,0.1,2.7,0.4,4c0.1,0.7,0.3,1.3,0.5,1.9c0.1,0.3,0.2,0.6,0.3,0.9
	c0.2,0.6,0.5,1.2,0.8,1.8c0.2,0.5,0.5,0.9,0.7,1.4c0.7,1.2,1.5,2.3,2.5,3.4c0.2,0.2,0.4,0.5,0.7,0.7c0.5,0.5,1.1,1.1,1.7,1.5
	c0.4,0.3,0.8,0.6,1.2,0.9c1.6,1.1,3.4,1.9,5.2,2.5c0.6,0.2,1.3,0.4,1.9,0.5c1.3,0.3,2.6,0.4,4,0.4c0.3,0,0.7,0,1,0
	c0.2,0,0.4,0,0.6,0c0.2,0,0.3,0,0.5,0c1-0.1,2-0.3,2.9-0.5c0.2-0.1,0.5-0.1,0.7-0.2c0.8-0.2,1.6-0.5,2.3-0.8
	c5.2-2.3,9.2-6.8,11-12.2c0.2-0.7,0.4-1.3,0.5-2c0.1-0.3,0.1-0.6,0.2-0.9c0-0.3,0.1-0.6,0.1-1c0-0.2,0-0.4,0-0.6c0-0.2,0-0.4,0-0.7
	c0-0.3,0-0.6,0-0.9v0C478.4,183.8,477.6,180.6,476.1,177.8z M476.1,177.8c-0.3-0.6-0.7-1.2-1.1-1.8c-1-1.4-2.1-2.7-3.4-3.9
	c-3.5-3.1-8.1-5-13.1-5c-1.6,0-3.1,0.2-4.6,0.6l-45-51.6c-1.9-2.2-4.5-3.3-7.2-3.3c-2.2,0-4.5,0.8-6.3,2.4c-2.2,1.9-3.3,4.6-3.3,7.2
	c0,2.2,0.8,4.5,2.4,6.3l37.9,43.5l7.3,8.4c-0.7,2.1-1.1,4.3-1.1,6.6c0,1.4,0.1,2.7,0.4,4c0.1,0.7,0.3,1.3,0.5,1.9
	c0.1,0.3,0.2,0.6,0.3,0.9c0.2,0.6,0.5,1.2,0.8,1.8c0.2,0.5,0.5,0.9,0.7,1.4c0.7,1.2,1.5,2.3,2.5,3.4c0.2,0.2,0.4,0.5,0.7,0.7
	c0.5,0.5,1.1,1.1,1.7,1.5c0.4,0.3,0.8,0.6,1.2,0.9c1.6,1.1,3.4,1.9,5.2,2.5c0.6,0.2,1.3,0.4,1.9,0.5c1.3,0.3,2.6,0.4,4,0.4
	c0.3,0,0.7,0,1,0c0.2,0,0.4,0,0.6,0c0.2,0,0.3,0,0.5,0c1-0.1,2-0.3,2.9-0.5c0.2-0.1,0.5-0.1,0.7-0.2c0.8-0.2,1.6-0.5,2.3-0.8
	c5.2-2.3,9.2-6.8,11-12.2c0.2-0.7,0.4-1.3,0.5-2c0.1-0.3,0.1-0.6,0.2-0.9c0-0.3,0.1-0.6,0.1-1c0-0.2,0-0.4,0-0.6c0-0.2,0-0.4,0-0.7
	c0-0.3,0-0.6,0-0.9v0C478.4,183.8,477.6,180.6,476.1,177.8z M458.5,41.5c-67.2,0-121.7,54.5-121.7,121.7v0.1c0,4.9,4,8.8,8.9,8.8h67
	l-29.4-33.7c-3.9-4.4-6-10.1-6-16c0-7,3-13.8,8.4-18.4c4.4-3.9,10.1-6,16-6c7.1,0,13.8,3.1,18.4,8.4l40.2,46.1
	c7.8,0.4,15.3,3.4,21.2,8.6c3.6,3.1,6.4,6.9,8.4,11.1h81.4c4.9,0,8.9-3.9,8.9-8.8v-0.1C580.2,96,525.7,41.5,458.5,41.5z M468.3,91.7
	h-18.4V59.3h18.4V91.7z M510,116.9l-13-13L519.9,81l13,13L510,116.9z M476.1,177.8c-0.3-0.6-0.7-1.2-1.1-1.8c-1-1.4-2.1-2.7-3.4-3.9
	c-3.5-3.1-8.1-5-13.1-5c-1.6,0-3.1,0.2-4.6,0.6l-45-51.6c-1.9-2.2-4.5-3.3-7.2-3.3c-2.2,0-4.5,0.8-6.3,2.4c-2.2,1.9-3.3,4.6-3.3,7.2
	c0,2.2,0.8,4.5,2.4,6.3l37.9,43.5l7.3,8.4c-0.7,2.1-1.1,4.3-1.1,6.6c0,1.4,0.1,2.7,0.4,4c0.1,0.7,0.3,1.3,0.5,1.9
	c0.1,0.3,0.2,0.6,0.3,0.9c0.2,0.6,0.5,1.2,0.8,1.8c0.2,0.5,0.5,0.9,0.7,1.4c0.7,1.2,1.5,2.3,2.5,3.4c0.2,0.2,0.4,0.5,0.7,0.7
	c0.5,0.5,1.1,1.1,1.7,1.5c0.4,0.3,0.8,0.6,1.2,0.9c1.6,1.1,3.4,1.9,5.2,2.5c0.6,0.2,1.3,0.4,1.9,0.5c1.3,0.3,2.6,0.4,4,0.4
	c0.3,0,0.7,0,1,0c0.2,0,0.4,0,0.6,0c0.2,0,0.3,0,0.5,0c1-0.1,2-0.3,2.9-0.5c0.2-0.1,0.5-0.1,0.7-0.2c0.8-0.2,1.6-0.5,2.3-0.8
	c5.2-2.3,9.2-6.8,11-12.2c0.2-0.7,0.4-1.3,0.5-2c0.1-0.3,0.1-0.6,0.2-0.9c0-0.3,0.1-0.6,0.1-1c0-0.2,0-0.4,0-0.6c0-0.2,0-0.4,0-0.7
	c0-0.3,0-0.6,0-0.9v0C478.4,183.8,477.6,180.6,476.1,177.8z"/>
<g>
	<path class="st7" d="M480.6,144.1c0-0.2,0-0.4,0-0.7v-0.3C480.6,143.4,480.6,143.8,480.6,144.1z M461.8,163c0.2,0,0.3,0,0.5,0
		C462.1,163,461.9,163,461.8,163L461.8,163z M456.6,162.6c-0.7-0.1-1.3-0.3-1.9-0.5C455.3,162.3,456,162.5,456.6,162.6z
		 M442.7,151.8c-0.3-0.6-0.5-1.2-0.8-1.8C442.1,150.6,442.4,151.2,442.7,151.8z M441.6,149.1c-0.2-0.6-0.4-1.3-0.5-1.9
		C441.2,147.8,441.4,148.4,441.6,149.1z"/>
</g>
</svg>
